<svg width="100" height="100" viewBox="0 0 100 100" fill="none" xmlns="http://www.w3.org/2000/svg">
<path d="M6.99707 75.5095C0.782315 65.0329 -1.39415 52.6479 0.87638 40.6802C3.14691 28.7125 9.70823 17.9852 19.3283 10.5128C28.9483 3.04042 40.9653 -0.66311 53.1228 0.0976701C65.2802 0.85845 76.7418 6.03121 85.3552 14.6446C93.9687 23.258 99.1415 34.7195 99.9023 46.877C100.663 59.0344 96.9597 71.0514 89.4873 80.6715C82.015 90.2916 71.2878 96.853 59.32 99.1236C47.3523 101.394 34.9673 99.2178 24.4907 93.003L24.4908 93.0025L7.21456 97.9386C6.49979 98.1428 5.7434 98.1522 5.02379 97.9657C4.30418 97.7793 3.64752 97.4037 3.12188 96.8781C2.59623 96.3524 2.22071 95.6958 2.03425 94.9762C1.84778 94.2566 1.85714 93.5002 2.06137 92.7854L6.99745 75.5092L6.99707 75.5095Z" fill="#009DFA"/>
<path d="M50.7406 65.86C50.7406 66.7 50.8606 67.4 51.1006 67.96C51.3406 68.52 51.8206 68.8 52.5406 68.8C54.4206 68.8 56.3006 66.62 58.1806 62.26H60.4006C59.4406 64.78 58.4806 66.78 57.5206 68.26C56.5606 69.74 55.6206 70.86 54.7006 71.62C53.8206 72.34 52.9806 72.8 52.1806 73C51.4206 73.24 50.7406 73.36 50.1406 73.36C48.0606 73.36 46.5806 72.72 45.7006 71.44C44.8206 70.12 44.3806 68.5 44.3806 66.58C44.3806 65.26 44.5206 63.88 44.8006 62.44C45.1206 61 45.4606 59.58 45.8206 58.18C46.1806 56.78 46.5006 55.44 46.7806 54.16C47.1006 52.84 47.2606 51.64 47.2606 50.56C47.2606 49.56 47.0806 48.76 46.7206 48.16C46.3606 47.56 45.6606 47.26 44.6206 47.26C42.0606 47.26 39.8406 49.4 37.9606 53.68L33.8206 73H27.8206L36.6406 31.84L42.8206 31L39.2806 47.5C40.0406 46.46 40.8006 45.62 41.5606 44.98C42.3206 44.34 43.0406 43.86 43.7206 43.54C44.4406 43.18 45.1006 42.96 45.7006 42.88C46.3406 42.76 46.9206 42.7 47.4406 42.7C48.6406 42.7 49.6406 42.88 50.4406 43.24C51.2406 43.6 51.8806 44.1 52.3606 44.74C52.8406 45.34 53.1606 46.06 53.3206 46.9C53.5206 47.7 53.6206 48.56 53.6206 49.48C53.6206 50.8 53.4606 52.18 53.1406 53.62C52.8606 55.06 52.5406 56.48 52.1806 57.88C51.8206 59.28 51.4806 60.66 51.1606 62.02C50.8806 63.38 50.7406 64.66 50.7406 65.86ZM68.3084 43L63.9284 63.4C63.8484 63.84 63.7884 64.28 63.7484 64.72C63.7084 65.16 63.6884 65.58 63.6884 65.98C63.6884 66.82 63.8284 67.5 64.1084 68.02C64.4284 68.54 64.9884 68.8 65.7884 68.8C66.0684 68.8 66.3484 68.78 66.6284 68.74C66.9484 68.7 67.3084 68.6 67.7084 68.44C67.2284 70.36 66.5884 71.66 65.7884 72.34C64.9884 73.02 64.0484 73.36 62.9684 73.36C62.3684 73.36 61.7484 73.24 61.1084 73C60.5084 72.8 59.9484 72.44 59.4284 71.92C58.9484 71.36 58.5284 70.64 58.1684 69.76C57.8484 68.84 57.6884 67.7 57.6884 66.34C57.6884 65.78 57.7084 65.16 57.7484 64.48C57.8284 63.8 57.9684 63.06 58.1684 62.26L62.2484 43H68.3084ZM62.7284 34.36C62.7284 33.28 63.1084 32.34 63.8684 31.54C64.6284 30.74 65.5684 30.34 66.6884 30.34C67.7684 30.34 68.7084 30.74 69.5084 31.54C70.3084 32.34 70.7084 33.28 70.7084 34.36C70.7084 35.48 70.3084 36.42 69.5084 37.18C68.7084 37.94 67.7684 38.32 66.6884 38.32C65.5684 38.32 64.6284 37.94 63.8684 37.18C63.1084 36.42 62.7284 35.48 62.7284 34.36Z" fill="white"/>
</svg>
